<svg xmlns="http://www.w3.org/2000/svg" viewBox="0 0 96 64" role="img" aria-labelledby="title desc">
  <title id="title">Orka AI emblem chip variant</title>
  <desc id="desc">Orka emblem with a small AI chip signature for larger brand surfaces.</desc>
  <rect width="96" height="64" rx="18" fill="#f7f9fa"/>
  <path d="M23 46c4-16 8-25 14-31 6 6 10 15 14 31" fill="none" stroke="#172033" stroke-width="4.2" stroke-linecap="round" stroke-linejoin="round"/>
  <path d="M29 44c3-9 5-14 8-18 3 4 5 9 8 18" fill="none" stroke="#52768a" stroke-width="3.1" stroke-linecap="round" stroke-linejoin="round"/>
  <path d="M25 49h24" stroke="#9ec7d9" stroke-width="4" stroke-linecap="round"/>
  <g aria-label="AI chip signature">
    <rect x="61" y="21" width="18" height="18" rx="5" fill="#172033"/>
    <path d="M65 27.5h10M65 32.5h10" stroke="#f7f9fa" stroke-width="1.25" stroke-linecap="round"/>
    <circle cx="66.5" cy="30" r="1.2" fill="#9ec7d9"/>
    <circle cx="73.5" cy="30" r="1.2" fill="#9ec7d9"/>
    <path d="M61 26h-3M61 34h-3M79 26h3M79 34h3" stroke="#52768a" stroke-width="1.4" stroke-linecap="round"/>
  </g>
</svg>
